<svg xmlns="http://www.w3.org/2000/svg" width="22" height="26" fill="none" viewBox="0 0 22 26">
    <path fill="#fff" d="M17.767 13.827c.027-2.007 1.11-3.907 2.83-4.958-1.085-1.54-2.902-2.517-4.792-2.576-2.016-.21-3.971 1.2-4.999 1.2-1.047 0-2.629-1.18-4.333-1.144-2.22.071-4.29 1.326-5.37 3.257-2.322 3.998-.59 9.873 1.634 13.105 1.113 1.582 2.414 3.35 4.116 3.287 1.665-.068 2.287-1.056 4.298-1.056 1.991 0 2.575 1.056 4.312 1.017 1.787-.03 2.913-1.59 3.987-3.187.8-1.128 1.415-2.374 1.823-3.693-2.1-.883-3.503-2.985-3.506-5.252zM14.488 4.168c.974-1.163 1.454-2.659 1.338-4.168-1.489.155-2.864.863-3.852 1.982-.965 1.092-1.468 2.561-1.373 4.013 1.49.015 2.953-.673 3.886-1.827z"/>
</svg>
