<svg xmlns="http://www.w3.org/2000/svg" width="707" height="592" fill="none" viewBox="0 0 707 592">
    <g clip-path="url(#clip0)">
        <path fill="#FA3600" fill-rule="evenodd" d="M295.693 99.548h409.949v168.445s-162.747 11.057-241.241-11.318c-27.609-7.87-7.036-19.233-15.155-32.209-7.27-11.618-36.809-40.052-36.809-40.052s-42.665-29.412-70.801-42.769c-12.192-5.788-30.292 2.152-39.574-7.968-4.999-5.45-6.369-34.129-6.369-34.129z" clip-rule="evenodd" opacity=".01"/>
        <mask id="58ppxgvl7a" width="411" height="172" x="295" y="99" maskUnits="userSpaceOnUse">
            <path fill="#fff" fill-rule="evenodd" d="M295.693 99.548h409.949v168.445s-162.747 11.057-241.241-11.318c-27.609-7.87-7.036-19.233-15.155-32.209-7.27-11.618-36.809-40.052-36.809-40.052s-42.665-29.412-70.801-42.769c-12.192-5.788-30.292 2.152-39.574-7.968-4.999-5.45-6.369-34.129-6.369-34.129z" clip-rule="evenodd"/>
        </mask>
        <g mask="url(#58ppxgvl7a)">
            <path fill="#FA3600" d="M339.582 142.666c-.706-7.69-6.835-14.153-16.902-14.153-11.108 0-18.389 7.838-18.389 20.245 0 12.631 7.281 20.283 18.463 20.283 9.398 0 16.048-5.646 16.902-13.968h-7.726c-.929 4.532-4.161 7.244-9.102 7.244-6.241 0-10.364-4.978-10.364-13.559 0-8.395 4.086-13.559 10.29-13.559 5.238 0 8.358 3.306 9.176 7.467h7.652zm16.883 26.301c5.126 0 10.067-2.749 12.333-7.096h.186v6.427h7.689v-26.932c0-7.838-6.055-12.853-15.528-12.853-9.658 0-15.676 5.2-16.122 12.258h7.578c.706-3.492 3.604-5.72 8.247-5.72 4.904 0 7.838 2.6 7.838 6.946v3.009l-10.698.632c-9.287.52-14.525 4.718-14.525 11.553 0 7.021 5.349 11.776 13.002 11.776zm2.228-6.353c-4.309 0-7.132-2.228-7.132-5.646 0-3.343 2.712-5.461 7.504-5.795l9.621-.595v3.084c0 5.089-4.383 8.952-9.993 8.952zm25.464 5.684h8.024v-23.403c0-5.535 3.195-8.99 8.359-8.99 1.56 0 2.971.186 3.603.446v-7.467c-.594-.111-1.597-.297-2.749-.297-4.606 0-8.098 2.712-9.399 7.281h-.185v-6.65h-7.653v39.08zm45.004-39.711c-5.647 0-10.142 2.86-12.445 7.355h-.148v-6.724h-7.764v52.008h8.024v-19.355h.185c2.229 4.347 6.687 7.096 12.296 7.096 9.808 0 16.308-7.838 16.308-20.209 0-12.37-6.538-20.171-16.456-20.171zm-2.118 33.582c-6.166 0-10.252-5.275-10.252-13.411 0-8.061 4.123-13.41 10.252-13.41 6.353 0 10.328 5.238 10.328 13.41 0 8.21-3.975 13.411-10.328 13.411zm41.252 6.872c11.182 0 18.537-7.69 18.537-20.283 0-12.556-7.392-20.245-18.537-20.245-11.144 0-18.537 7.689-18.537 20.245 0 12.593 7.356 20.283 18.537 20.283zm0-6.612c-6.278 0-10.364-4.978-10.364-13.671 0-8.655 4.086-13.633 10.364-13.633 6.278 0 10.364 4.978 10.364 13.633 0 8.693-4.049 13.671-10.364 13.671zm41.215 6.612c11.181 0 18.537-7.69 18.537-20.283 0-12.556-7.393-20.245-18.537-20.245-11.145 0-18.537 7.689-18.537 20.245 0 12.593 7.355 20.283 18.537 20.283zm0-6.612c-6.278 0-10.365-4.978-10.365-13.671 0-8.655 4.087-13.633 10.365-13.633 6.278 0 10.364 4.978 10.364 13.633 0 8.693-4.049 13.671-10.364 13.671zm24.72 5.869h8.024v-53.605h-8.024v53.605zm-228.193 76h8.024v-24.146c0-5.015 3.381-8.73 8.136-8.73 4.532 0 7.392 2.86 7.392 7.355v25.521h7.876v-24.406c0-4.941 3.306-8.47 8.061-8.47s7.467 2.898 7.467 7.95v24.926h8.061V217.44c0-7.764-5.053-12.89-12.779-12.89-5.573 0-10.179 2.897-12.185 7.652h-.186c-1.56-4.866-5.498-7.652-10.921-7.652-5.275 0-9.361 2.897-11.107 7.244h-.186v-6.576h-7.653v39.08zm73.905.669c5.127 0 10.067-2.749 12.333-7.096h.186v6.427h7.69v-26.932c0-7.838-6.055-12.853-15.528-12.853-9.659 0-15.677 5.2-16.122 12.258h7.578c.706-3.492 3.603-5.72 8.247-5.72 4.903 0 7.838 2.6 7.838 6.946v3.009l-10.699.632c-9.287.52-14.525 4.718-14.525 11.553 0 7.021 5.35 11.776 13.002 11.776zm2.229-6.353c-4.309 0-7.132-2.228-7.132-5.646 0-3.343 2.711-5.461 7.504-5.795l9.621-.595v3.084c0 5.089-4.384 8.952-9.993 8.952zm40.137 6.353c5.684 0 10.142-2.861 12.445-7.318h.149v6.649h7.801v-53.605h-8.062v21.026h-.148c-2.192-4.309-6.65-7.132-12.259-7.132-9.807 0-16.345 7.838-16.345 20.171 0 12.333 6.538 20.209 16.419 20.209zm2.118-33.619c6.166 0 10.29 5.312 10.29 13.41 0 8.173-4.124 13.411-10.29 13.411-6.353 0-10.327-5.164-10.327-13.411 0-8.21 3.974-13.41 10.327-13.41zm52.099 21.471c-1.078 3.418-4.458 5.721-9.027 5.721-6.427 0-10.513-4.495-10.513-11.293v-.483h27.601v-2.749c0-11.85-6.761-19.502-17.608-19.502-11.033 0-18.091 8.172-18.091 20.431 0 12.333 6.946 20.097 18.425 20.097 8.953 0 15.714-5.089 16.828-12.222h-7.615zm-9.547-21.843c5.609 0 9.398 4.198 9.584 10.179h-19.54c.409-5.907 4.346-10.179 9.956-10.179zm64.561 21.843c-1.078 3.418-4.458 5.721-9.027 5.721-6.427 0-10.513-4.495-10.513-11.293v-.483H539.6v-2.749c0-11.85-6.761-19.502-17.609-19.502-11.033 0-18.091 8.172-18.091 20.431 0 12.333 6.947 20.097 18.426 20.097 8.952 0 15.713-5.089 16.828-12.222h-7.615zm-9.548-21.843c5.61 0 9.399 4.198 9.585 10.179h-19.54c.408-5.907 4.346-10.179 9.955-10.179zm34.974 33.991c5.127 0 10.067-2.749 12.333-7.096h.186v6.427h7.69v-26.932c0-7.838-6.055-12.853-15.528-12.853-9.659 0-15.677 5.2-16.122 12.258h7.578c.706-3.492 3.603-5.72 8.247-5.72 4.903 0 7.838 2.6 7.838 6.946v3.009l-10.699.632c-9.287.52-14.525 4.718-14.525 11.553 0 7.021 5.35 11.776 13.002 11.776zm2.229-6.353c-4.309 0-7.132-2.228-7.132-5.646 0-3.343 2.711-5.461 7.503-5.795l9.622-.595v3.084c0 5.089-4.384 8.952-9.993 8.952zm24.758-22.326c0 5.684 3.678 9.25 11.107 10.959l6.353 1.486c4.272.966 5.72 2.452 5.72 4.978 0 3.195-2.971 5.201-7.801 5.201-4.903 0-7.689-2.006-8.432-6.093h-7.95c.743 7.43 6.612 12.222 16.382 12.222 9.213 0 15.862-4.903 15.862-12.036 0-5.646-3.046-8.767-11.032-10.624l-6.353-1.449c-4.235-.966-6.018-2.638-6.018-5.089 0-3.121 2.898-5.238 7.244-5.238 4.495 0 7.281 2.377 7.727 6.166h7.541c-.26-7.206-6.167-12.258-15.268-12.258-8.99 0-15.082 4.792-15.082 11.775zm40.992 42.572c8.098 0 11.961-3.046 15.305-12.519l14.636-41.123h-8.47l-9.881 31.799h-.149l-9.881-31.799h-8.693l14.116 39.117c0 .037-.705 2.341-.705 2.415-1.226 4.012-3.232 5.572-6.947 5.572-.669 0-2.006 0-2.6-.149v6.501c.594.112 2.6.186 3.269.186z"/>
        </g>
    </g>
    <g clip-path="url(#clip1)">
        <path fill="#D8D8D8" fill-rule="evenodd" d="M295.693 127.644s56.299 14.089 81.926 25.176c25.626 11.088 44.353 29.457 44.353 29.457s19.817 28.26 29.003 43.43c9.187 15.17 19.25 36.252 19.25 36.252H295.693V127.644z" clip-rule="evenodd" opacity=".01"/>
        <mask id="3jqf31e6zb" width="176" height="135" x="295" y="127" maskUnits="userSpaceOnUse">
            <path fill="#fff" fill-rule="evenodd" d="M295.693 127.644s56.299 14.089 81.926 25.176c25.626 11.088 44.353 29.457 44.353 29.457s19.817 28.26 29.003 43.43c9.187 15.17 19.25 36.252 19.25 36.252H295.693V127.644z" clip-rule="evenodd"/>
        </mask>
        <g mask="url(#3jqf31e6zb)">
            <path fill="#FA3600" d="M339.582 138.199c-.706-7.69-6.835-14.154-16.902-14.154-11.108 0-18.389 7.839-18.389 20.246 0 12.631 7.281 20.283 18.463 20.283 9.398 0 16.048-5.646 16.902-13.968h-7.726c-.929 4.532-4.161 7.244-9.102 7.244-6.241 0-10.364-4.978-10.364-13.559 0-8.395 4.086-13.559 10.29-13.559 5.238 0 8.358 3.306 9.176 7.467h7.652zm16.883 26.301c5.126 0 10.067-2.749 12.333-7.096h.186v6.427h7.689v-26.932c0-7.839-6.055-12.854-15.528-12.854-9.658 0-15.676 5.201-16.122 12.259h7.578c.706-3.492 3.604-5.72 8.247-5.72 4.904 0 7.838 2.6 7.838 6.946v3.009l-10.698.632c-9.287.52-14.525 4.718-14.525 11.553 0 7.021 5.349 11.776 13.002 11.776zm2.228-6.353c-4.309 0-7.132-2.228-7.132-5.646 0-3.343 2.712-5.461 7.504-5.795l9.621-.595v3.084c0 5.089-4.383 8.952-9.993 8.952zm25.464 5.684h8.024v-23.403c0-5.535 3.195-8.99 8.359-8.99 1.56 0 2.971.186 3.603.446v-7.467c-.594-.111-1.597-.297-2.749-.297-4.606 0-8.098 2.712-9.399 7.281h-.185v-6.65h-7.653v39.08zm45.004-39.711c-5.647 0-10.142 2.86-12.445 7.355h-.148v-6.724h-7.764v52.008h8.024v-19.355h.185c2.229 4.347 6.687 7.096 12.296 7.096 9.808 0 16.308-7.839 16.308-20.209s-6.538-20.171-16.456-20.171zm-2.118 33.582c-6.166 0-10.252-5.275-10.252-13.411 0-8.061 4.123-13.41 10.252-13.41 6.353 0 10.328 5.238 10.328 13.41 0 8.21-3.975 13.411-10.328 13.411zm41.252 6.872c11.182 0 18.537-7.69 18.537-20.283 0-12.556-7.392-20.246-18.537-20.246-11.144 0-18.537 7.69-18.537 20.246 0 12.593 7.356 20.283 18.537 20.283zm0-6.612c-6.278 0-10.364-4.978-10.364-13.671 0-8.655 4.086-13.633 10.364-13.633 6.278 0 10.364 4.978 10.364 13.633 0 8.693-4.049 13.671-10.364 13.671zm41.215 6.612c11.181 0 18.537-7.69 18.537-20.283 0-12.556-7.393-20.246-18.537-20.246-11.145 0-18.537 7.69-18.537 20.246 0 12.593 7.355 20.283 18.537 20.283zm0-6.612c-6.278 0-10.365-4.978-10.365-13.671 0-8.655 4.087-13.633 10.365-13.633 6.278 0 10.364 4.978 10.364 13.633 0 8.693-4.049 13.671-10.364 13.671zm24.72 5.869h8.024v-53.605h-8.024v53.605zm-228.193 76h8.024v-24.146c0-5.015 3.381-8.73 8.136-8.73 4.532 0 7.392 2.86 7.392 7.355v25.521h7.876v-24.406c0-4.941 3.306-8.47 8.061-8.47s7.467 2.898 7.467 7.95v24.926h8.061v-26.858c0-7.764-5.053-12.89-12.779-12.89-5.573 0-10.179 2.897-12.185 7.652h-.186c-1.56-4.866-5.498-7.652-10.921-7.652-5.275 0-9.361 2.897-11.107 7.243h-.186v-6.575h-7.653v39.08zm73.905.669c5.127 0 10.067-2.749 12.333-7.096h.186v6.427h7.69v-26.932c0-7.839-6.055-12.854-15.528-12.854-9.659 0-15.677 5.201-16.122 12.259h7.578c.706-3.492 3.603-5.72 8.247-5.72 4.903 0 7.838 2.6 7.838 6.946v3.009l-10.699.632c-9.287.52-14.525 4.718-14.525 11.553 0 7.021 5.35 11.776 13.002 11.776zm2.229-6.353c-4.309 0-7.132-2.228-7.132-5.646 0-3.343 2.711-5.461 7.504-5.795l9.621-.595v3.084c0 5.089-4.384 8.952-9.993 8.952zm40.137 6.353c5.684 0 10.142-2.861 12.445-7.318h.149v6.649h7.801v-53.605h-8.062v21.026h-.148c-2.192-4.309-6.65-7.132-12.259-7.132-9.807 0-16.345 7.838-16.345 20.171 0 12.333 6.538 20.209 16.419 20.209zm2.118-33.619c6.166 0 10.29 5.312 10.29 13.41 0 8.173-4.124 13.411-10.29 13.411-6.353 0-10.327-5.164-10.327-13.411 0-8.21 3.974-13.41 10.327-13.41zm52.099 21.471c-1.078 3.418-4.458 5.721-9.027 5.721-6.427 0-10.513-4.495-10.513-11.293v-.483h27.601v-2.749c0-11.85-6.761-19.503-17.608-19.503-11.033 0-18.091 8.173-18.091 20.432 0 12.333 6.946 20.097 18.425 20.097 8.953 0 15.714-5.089 16.828-12.222h-7.615zm-9.547-21.843c5.609 0 9.398 4.198 9.584 10.179h-19.54c.409-5.907 4.346-10.179 9.956-10.179zm64.561 21.843c-1.078 3.418-4.458 5.721-9.027 5.721-6.427 0-10.513-4.495-10.513-11.293v-.483H539.6v-2.749c0-11.85-6.761-19.503-17.609-19.503-11.033 0-18.091 8.173-18.091 20.432 0 12.333 6.947 20.097 18.426 20.097 8.952 0 15.713-5.089 16.828-12.222h-7.615zm-9.548-21.843c5.61 0 9.399 4.198 9.585 10.179h-19.54c.408-5.907 4.346-10.179 9.955-10.179zm34.974 33.991c5.127 0 10.067-2.749 12.333-7.096h.186v6.427h7.69v-26.932c0-7.839-6.055-12.854-15.528-12.854-9.659 0-15.677 5.201-16.122 12.259h7.578c.706-3.492 3.603-5.72 8.247-5.72 4.903 0 7.838 2.6 7.838 6.946v3.009l-10.699.632c-9.287.52-14.525 4.718-14.525 11.553 0 7.021 5.35 11.776 13.002 11.776zm2.229-6.353c-4.309 0-7.132-2.228-7.132-5.646 0-3.343 2.711-5.461 7.503-5.795l9.622-.595v3.084c0 5.089-4.384 8.952-9.993 8.952zm24.758-22.326c0 5.684 3.678 9.25 11.107 10.959l6.353 1.486c4.272.966 5.72 2.452 5.72 4.978 0 3.195-2.971 5.201-7.801 5.201-4.903 0-7.689-2.006-8.432-6.093h-7.95c.743 7.43 6.612 12.222 16.382 12.222 9.213 0 15.862-4.904 15.862-12.036 0-5.646-3.046-8.767-11.032-10.624l-6.353-1.449c-4.235-.966-6.018-2.638-6.018-5.089 0-3.121 2.898-5.238 7.244-5.238 4.495 0 7.281 2.377 7.727 6.166h7.541c-.26-7.206-6.167-12.259-15.268-12.259-8.99 0-15.082 4.793-15.082 11.776zm40.992 42.572c8.098 0 11.961-3.046 15.305-12.519l14.636-41.123h-8.47l-9.881 31.799h-.149l-9.881-31.799h-8.693l14.116 39.117c0 .037-.705 2.341-.705 2.415-1.226 4.012-3.232 5.572-6.947 5.572-.669 0-2.006 0-2.6-.149v6.501c.594.112 2.6.186 3.269.186z"/>
        </g>
    </g>
    <g filter="url(#filter0_bii)">
        <path fill="#fff" fill-opacity=".03" d="M114.398 116.657c-30.12-52.17 17.87-114.713 76.058-99.121l234.197 62.753c92.181 24.7 146.886 119.452 122.186 211.633l-62.753 234.197c-15.591 58.188-93.75 68.477-123.87 16.308l-245.818-425.77z"/>
    </g>
    <g filter="url(#filter1_bi)">
        <path fill="#000" fill-opacity=".02" d="M209.087 140.978c-21.388-37.045 12.69-81.456 54.008-70.385l166.299 44.56c65.457 17.539 104.302 84.821 86.763 150.278l-44.56 166.299c-11.071 41.318-66.57 48.625-87.958 11.58L209.087 140.978z"/>
    </g>
    <defs>
        <clipPath id="clip0">
            <path fill="#fff" d="M0 0H410.481V172.641H0z" transform="translate(295.693 99.177)"/>
        </clipPath>
        <clipPath id="clip1">
            <path fill="#fff" d="M0 0H175.396V134.99H0z" transform="translate(295.693 127.644)"/>
        </clipPath>
        <filter id="filter0_bii" width="615.363" height="615.363" x="-11.9" y="-11.9" color-interpolation-filters="sRGB" filterUnits="userSpaceOnUse">
            <feFlood flood-opacity="0" result="BackgroundImageFix"/>
            <feGaussianBlur in="BackgroundImage" stdDeviation="5.95"/>
            <feComposite in2="SourceAlpha" operator="in" result="effect1_backgroundBlur"/>
            <feBlend in="SourceGraphic" in2="effect1_backgroundBlur" result="shape"/>
            <feColorMatrix in="SourceAlpha" result="hardAlpha" values="0 0 0 0 0 0 0 0 0 0 0 0 0 0 0 0 0 0 127 0"/>
            <feOffset dx="6.8"/>
            <feGaussianBlur stdDeviation="3.4"/>
            <feComposite in2="hardAlpha" k2="-1" k3="1" operator="arithmetic"/>
            <feColorMatrix values="0 0 0 0 1 0 0 0 0 1 0 0 0 0 1 0 0 0 0.16 0"/>
            <feBlend in2="shape" result="effect2_innerShadow"/>
            <feColorMatrix in="SourceAlpha" result="hardAlpha" values="0 0 0 0 0 0 0 0 0 0 0 0 0 0 0 0 0 0 127 0"/>
            <feOffset dy="6.8"/>
            <feGaussianBlur stdDeviation="3.4"/>
            <feComposite in2="hardAlpha" k2="-1" k3="1" operator="arithmetic"/>
            <feColorMatrix values="0 0 0 0 1 0 0 0 0 1 0 0 0 0 1 0 0 0 0.16 0"/>
            <feBlend in2="effect2_innerShadow" result="effect3_innerShadow"/>
        </filter>
        <filter id="filter1_bi" width="443.859" height="443.859" x="115.955" y="46.242" color-interpolation-filters="sRGB" filterUnits="userSpaceOnUse">
            <feFlood flood-opacity="0" result="BackgroundImageFix"/>
            <feGaussianBlur in="BackgroundImage" stdDeviation="5.95"/>
            <feComposite in2="SourceAlpha" operator="in" result="effect1_backgroundBlur"/>
            <feBlend in="SourceGraphic" in2="effect1_backgroundBlur" result="shape"/>
            <feColorMatrix in="SourceAlpha" result="hardAlpha" values="0 0 0 0 0 0 0 0 0 0 0 0 0 0 0 0 0 0 127 0"/>
            <feOffset/>
            <feGaussianBlur stdDeviation="63.75"/>
            <feComposite in2="hardAlpha" k2="-1" k3="1" operator="arithmetic"/>
            <feColorMatrix values="0 0 0 0 0.980392 0 0 0 0 0.211783 0 0 0 0 0 0 0 0 0.24 0"/>
            <feBlend in2="shape" result="effect2_innerShadow"/>
        </filter>
    </defs>
</svg>
