<svg xmlns="http://www.w3.org/2000/svg" width="128" height="59" fill="none" viewBox="0 0 128 59">
    <path fill="#000" d="M29.375 28.555c0 1.172-.156 2.2-.469 3.086-.312.859-.664 1.588-1.054 2.187-.391.6-.756 1.055-1.094 1.367l-.508.508-.39.313-.547-.157c-1.459-.494-2.748-.859-3.868-1.093-1.093-.235-2.187-.352-3.28-.352-.808 0-1.602.078-2.384.234l.235.47.156.35-.156.313c-.964 2.657-1.446 5.378-1.446 8.164 0 1.328.104 2.644.313 3.946.208 1.302.56 2.617 1.055 3.945l.156.43-.157.312c-.025.052-.169.287-.43.703-.26.39-.69.834-1.288 1.328-.6.47-1.42.899-2.461 1.29-1.016.39-2.292.585-3.828.585-1.537 0-2.813-.208-3.828-.625-.99-.416-1.784-.872-2.383-1.367-.573-.52-.977-.99-1.211-1.406-.235-.443-.352-.69-.352-.742L0 52.03l.156-.43c.6-1.432 1.042-2.903 1.328-4.413.287-1.51.43-3.047.43-4.61 0-1.094-.065-2.2-.195-3.32-.104-1.12-.3-2.279-.586-3.477v-.508c.312-1.276.56-2.526.742-3.75.208-1.25.313-2.5.313-3.75 0-1.38-.118-2.734-.352-4.062-.234-1.328-.547-2.643-.938-3.945l-.078-.391.157-.313c.572-1.406.99-2.812 1.25-4.218.286-1.432.43-2.852.43-4.258 0-1.146-.092-2.279-.274-3.399-.156-1.145-.417-2.304-.781-3.476l-.157-.508.313-.39.469-.47c.286-.312.716-.637 1.289-.976.599-.364 1.34-.677 2.226-.937C6.628.143 7.682 0 8.906 0c1.406 0 2.604.195 3.594.586.99.39 1.784.807 2.383 1.25.755-.078 1.55-.195 2.383-.352.833-.156 1.666-.377 2.5-.664l.312-.156.43.078c1.25.39 2.33.69 3.242.899.938.182 1.823.273 2.656.273.912 0 1.862-.117 2.852-.351.99-.235 2.148-.586 3.476-1.055l.47-.196.429.274c.026.026.195.17.508.43.312.26.65.664 1.015 1.21.365.521.703 1.198 1.016 2.032.338.807.547 1.797.625 2.969v.703c0 1.041-.13 1.966-.39 2.773-.261.807-.56 1.498-.9 2.07-.312.547-.611.964-.898 1.25-.26.287-.403.443-.43.47l-.39.312-.586-.157c-1.25-.286-2.318-.494-3.203-.625-.885-.156-1.706-.234-2.46-.234-.886 0-1.772.104-2.657.313-.86.182-1.901.468-3.125.859l-.547.078c-1.094-.208-2.148-.364-3.164-.469-.99-.104-1.992-.156-3.008-.156.078.73.182 1.458.313 2.188.156.703.351 1.419.585 2.148v.547c-.156.469-.286.937-.39 1.406-.078.443-.156.912-.235 1.406.756.209 1.459.352 2.11.43.677.078 1.38.117 2.11.117.963 0 1.94-.078 2.929-.234.99-.182 2.07-.456 3.242-.82l.469-.157.39.313.47.469c.312.26.637.677.976 1.25.364.546.677 1.25.937 2.109.287.833.43 1.823.43 2.969zM14.492 4.023c-.182-.156-.43-.351-.742-.585-.313-.235-.703-.456-1.172-.665-.469-.208-1.015-.377-1.64-.507-.6-.157-1.277-.235-2.032-.235-.729 0-1.38.065-1.953.196-.573.104-1.08.247-1.523.43-.417.182-.769.364-1.055.546-.286.182-.508.352-.664.508.312 1.172.547 2.318.703 3.437.156 1.12.234 2.266.234 3.438 0 2.474-.403 4.922-1.21 7.344.65-.209 1.276-.339 1.874-.39.6-.053 1.16-.08 1.68-.08 1.406 0 2.461.092 3.164.274.703.157 1.198.339 1.485.547.338.235.494.495.468.782 0 .234-.09.43-.273.585-.156.13-.339.196-.547.196-.052 0-.13-.026-.234-.078-.078-.078-.248-.157-.508-.235-.26-.078-.625-.143-1.094-.195-.469-.078-1.107-.117-1.914-.117-.651 0-1.354.065-2.11.195-.755.13-1.549.352-2.382.664.364 1.25.638 2.5.82 3.75.209 1.25.313 2.54.313 3.867 0 1.094-.078 2.214-.235 3.36-.13 1.12-.325 2.24-.586 3.36.417-.053.808-.092 1.172-.118.365-.026.755-.04 1.172-.04.6 0 1.29.04 2.07.118.782.052 1.524.143 2.227.273.703.13 1.29.3 1.758.508.495.183.742.417.742.703 0 .287-.117.495-.352.625-.234.105-.468.157-.703.157-.599-.157-1.289-.287-2.07-.391-.755-.104-1.55-.156-2.383-.156-.599 0-1.237.039-1.914.117-.65.052-1.276.117-1.875.195.26 1.094.43 2.162.508 3.203.104 1.042.156 2.058.156 3.047 0 3.177-.56 6.263-1.68 9.258.105.182.274.43.508.742.26.287.612.573 1.055.86.469.26 1.042.494 1.719.703.677.182 1.497.273 2.46.273.964 0 1.798-.091 2.5-.273.704-.183 1.29-.39 1.758-.625.495-.26.873-.521 1.133-.782.287-.286.495-.52.625-.703-.442-1.38-.78-2.734-1.015-4.062-.235-1.328-.352-2.67-.352-4.024 0-1.458.117-2.89.352-4.296.26-1.407.65-2.826 1.172-4.258-.443-1.328-.769-2.657-.977-3.985-.208-1.328-.313-2.695-.313-4.101 0-1.328.092-2.682.274-4.063.208-1.406.52-2.825.937-4.258-.65-2.135-.976-4.322-.976-6.562 0-2.839.482-5.664 1.445-8.477zm2.227-.43l-.235.509c-.468 1.432-.833 2.851-1.093 4.257-.235 1.38-.352 2.735-.352 4.063v.078c1.016 0 2.031.065 3.047.195 1.042.13 2.11.274 3.203.43 1.302-.443 2.409-.768 3.32-.977.938-.208 1.888-.312 2.852-.312.807 0 1.667.078 2.578.234.912.157 1.966.378 3.164.664.13-.156.287-.377.469-.664.208-.286.39-.638.547-1.054.182-.417.338-.886.468-1.407.13-.546.196-1.158.196-1.836 0-.729-.078-1.393-.235-1.992-.156-.599-.351-1.12-.586-1.562-.208-.443-.43-.808-.664-1.094-.234-.313-.43-.547-.586-.703-1.38.469-2.539.82-3.476 1.055-.912.208-1.81.312-2.695.312-.677 0-1.407-.065-2.188-.195-.781-.13-1.68-.313-2.695-.547.286.729.495 1.445.625 2.148.13.703.195 1.354.195 1.953 0 1.172-.078 2.058-.234 2.657-.13.573-.287.976-.469 1.21-.182.235-.352.352-.508.352h-.234c-.209 0-.39-.078-.547-.234-.156-.156-.234-.339-.234-.547 0-.026.013-.078.039-.156.052-.078.104-.209.156-.39.052-.183.091-.444.117-.782.052-.339.078-.807.078-1.406 0-.678-.078-1.446-.234-2.305-.156-.86-.482-1.745-.977-2.656-.494 0-1.002.065-1.523.195-.521.104-1.029.221-1.524.352l.235.156zm1.367 28.985c1.146 0 2.279.104 3.398.313 1.146.208 2.448.534 3.907.976.182-.156.39-.39.625-.703.234-.312.455-.69.664-1.133.208-.442.39-.95.547-1.523.156-.573.234-1.224.234-1.953 0-.703-.065-1.328-.195-1.875-.13-.547-.287-1.016-.47-1.407-.181-.416-.377-.755-.585-1.015-.208-.287-.378-.508-.508-.664-1.172.338-2.226.573-3.164.703-.911.13-1.81.195-2.695.195-.808 0-1.602-.039-2.383-.117-.781-.104-1.615-.273-2.5-.508-.078.6-.143 1.211-.195 1.836-.026.6-.04 1.185-.04 1.758 0 .911.04 1.81.118 2.695.104.886.26 1.771.469 2.657.937-.157 1.861-.235 2.773-.235zM56.055 4.336l-.235.469c-.729 1.692-1.263 3.36-1.601 5-.313 1.614-.469 3.229-.469 4.843 0 1.563.156 3.139.469 4.727v.547c-.6 1.719-1.055 3.307-1.367 4.765-.313 1.459-.47 2.891-.47 4.297 0 .912.066 1.823.196 2.735.13.911.339 1.862.625 2.851v.625c-.729 1.563-1.263 2.982-1.601 4.258-.313 1.276-.47 2.578-.47 3.906.834-.208 1.641-.455 2.423-.742.78-.312 1.68-.65 2.695-1.015l.625-.157c.651.078 1.263.157 1.836.235.599.052 1.185.078 1.758.078 1.745 0 3.424-.235 5.039-.703-.13-.755-.274-1.524-.43-2.305-.156-.807-.351-1.615-.586-2.422l-.117-.469c.208-.963.352-1.914.43-2.851.104-.964.156-1.94.156-2.93 0-1.693-.156-3.346-.469-4.96-.312-1.641-.768-3.243-1.367-4.805v-.625c.39-1.198.664-2.383.82-3.555.183-1.172.274-2.357.274-3.555 0-1.38-.13-2.747-.39-4.101-.235-1.355-.613-2.735-1.134-4.141l-.234-.469.352-.508c.026-.026.182-.208.468-.546.287-.339.742-.704 1.367-1.094.625-.39 1.42-.742 2.383-1.055.99-.338 2.188-.508 3.594-.508 1.094 0 2.044.13 2.852.39.833.261 1.536.548 2.109.86.573.313 1.002.612 1.289.899.287.26.443.403.469.43l.39.39-.156.586c-.625 2.318-.937 4.583-.937 6.797 0 2.708.481 5.312 1.445 7.812v.586c-.495 2.162-.742 4.258-.742 6.29 0 3.28.638 6.432 1.914 9.452l.156.313-.078.312c-.625 2.266-.938 4.48-.938 6.641 0 1.615.157 3.203.47 4.766.338 1.562.846 3.125 1.523 4.687l.156.313-.156.43c-.026.025-.17.273-.43.742-.234.442-.677.937-1.328 1.484-.625.547-1.485 1.042-2.578 1.484-1.094.443-2.5.664-4.22.664-1.067 0-1.991-.104-2.772-.312-.756-.208-1.407-.469-1.954-.781-.546-.313-.99-.638-1.328-.977-.312-.339-.56-.638-.742-.898-.807.26-1.602.56-2.383.898-.755.313-1.536.69-2.343 1.133l-.47.078c-1.327 0-2.603.026-3.827.078-1.198.026-2.37.13-3.516.313-1.12.156-2.24.416-3.36.78-1.093.392-2.2.925-3.32 1.602l-.312.235-.39-.078c-.157-.078-.444-.196-.86-.352-.39-.13-.847-.404-1.367-.82-.495-.39-1.016-.964-1.563-1.719-.547-.781-1.042-1.836-1.484-3.164-.73-.339-1.328-.716-1.797-1.133-.469-.442-.846-.86-1.133-1.25-.26-.39-.456-.716-.586-.976-.104-.287-.156-.456-.156-.508l-.117-.39.195-.313c.833-1.667 1.445-3.203 1.836-4.61.417-1.432.625-2.995.625-4.687 0-.677-.04-1.38-.117-2.11-.052-.729-.144-1.51-.274-2.343v-.47c.547-1.562.964-3.046 1.25-4.452.287-1.406.43-2.813.43-4.219 0-.911-.078-1.836-.234-2.773-.13-.938-.326-1.927-.586-2.97l-.078-.312.156-.351c.807-1.64 1.406-3.281 1.797-4.922.416-1.64.625-3.333.625-5.078 0-1.693-.222-3.45-.664-5.274l-.157-.546.43-.313.43-.43c.26-.26.65-.52 1.172-.78.52-.287 1.172-.548 1.953-.782.807-.235 1.745-.352 2.812-.352 1.354 0 2.54.196 3.555.586 1.016.365 1.849.781 2.5 1.25.677.443 1.172.86 1.484 1.25.339.39.521.6.547.625l.313.469zm-2.227.234c-.182-.182-.443-.403-.781-.664-.339-.286-.768-.56-1.29-.82-.52-.26-1.132-.469-1.835-.625-.703-.182-1.51-.273-2.422-.273-1.172 0-2.135.156-2.89.468-.73.313-1.25.573-1.563.781.208.912.351 1.797.43 2.657.078.86.117 1.745.117 2.656 0 1.51-.144 3.008-.43 4.492-.286 1.458-.73 2.917-1.328 4.375.86-.156 1.706-.234 2.539-.234 1.615 0 2.839.117 3.672.351.833.235 1.42.482 1.758.743.364.26.547.494.547.703.026.182.039.247.039.195 0 .234-.091.43-.274.586-.182.13-.351.195-.508.195-.078 0-.169-.039-.273-.117-.104-.104-.313-.208-.625-.312-.286-.13-.716-.248-1.29-.352-.572-.104-1.34-.156-2.304-.156-.573 0-1.172.052-1.797.156-.625.078-1.276.234-1.953.469.209.911.352 1.797.43 2.656.078.86.117 1.706.117 2.54 0 1.301-.104 2.59-.312 3.866-.209 1.25-.534 2.604-.977 4.063h1.21c.678 0 1.472.052 2.384.156.911.104 1.77.247 2.578.43.807.156 1.484.364 2.031.625.573.234.86.495.86.78 0 .287-.118.496-.352.626-.208.13-.39.195-.547.195-.052 0-.091-.013-.117-.039-.026-.026-.065-.039-.117-.039-.808-.286-1.758-.508-2.852-.664-1.094-.156-2.226-.234-3.398-.234h-.977c-.312 0-.625.026-.937.078.156 1.458.234 2.747.234 3.867 0 .885-.052 1.719-.156 2.5-.104.781-.26 1.563-.469 2.344-.182.755-.43 1.523-.742 2.304-.287.782-.625 1.615-1.016 2.5.078.209.248.482.508.82.26.34.638.665 1.133.977.52.313 1.172.586 1.953.82.807.235 1.797.352 2.969.352.807 0 1.497-.078 2.07-.234.599-.156 1.094-.339 1.484-.547.417-.208.743-.43.977-.664.26-.234.456-.417.586-.547-.287-1.094-.495-2.096-.625-3.008-.13-.937-.195-1.862-.195-2.773 0-1.433.182-2.839.546-4.219.365-1.406.912-2.956 1.641-4.648-.286-1.042-.495-2.045-.625-3.008-.13-.964-.195-1.927-.195-2.89 0-1.485.143-2.97.43-4.454.286-1.51.755-3.125 1.406-4.844-.209-.833-.352-1.666-.43-2.5-.078-.86-.117-1.705-.117-2.539 0-3.229.69-6.536 2.07-9.922zm22.07 40.235c.079.416.144.82.196 1.21.052.391.078.769.078 1.133 0 .834-.091 1.576-.274 2.227-.156.651-.338 1.21-.546 1.68-.209.442-.404.794-.586 1.054-.157.235-.248.365-.274.391l-.43.39-.468-.078c-.521-.052-1.029-.09-1.524-.117-.468-.026-.924-.039-1.367-.039-.65 0-1.276.04-1.875.117-.599.052-1.198.118-1.797.196.365.364.912.729 1.64 1.093.73.339 1.707.508 2.93.508 1.172 0 2.162-.104 2.97-.312.807-.235 1.47-.508 1.992-.82.52-.313.924-.626 1.21-.938.287-.339.495-.612.625-.82-.65-1.615-1.145-3.242-1.484-4.883-.338-1.667-.508-3.32-.508-4.961 0-2.214.313-4.453.938-6.719-.651-1.562-1.146-3.177-1.485-4.844-.338-1.666-.507-3.359-.507-5.078 0-2.057.234-4.205.703-6.445-.938-2.656-1.407-5.404-1.407-8.242 0-1.094.066-2.188.196-3.281.156-1.12.377-2.266.664-3.438-.156-.156-.378-.325-.664-.508-.287-.182-.638-.364-1.055-.547-.417-.182-.898-.325-1.445-.43-.547-.13-1.146-.195-1.797-.195-.834 0-1.576.079-2.227.235-.625.156-1.185.338-1.68.547-.494.208-.898.442-1.21.703-.313.234-.547.43-.703.586.963 2.838 1.445 5.638 1.445 8.398 0 .964-.052 1.927-.156 2.89-.105.938-.274 1.889-.508 2.852.755-.286 1.484-.482 2.187-.586.73-.13 1.42-.195 2.07-.195 1.25 0 2.175.065 2.774.195.625.13 1.055.287 1.29.47.26.155.39.312.39.468v.312c0 .209-.091.391-.274.547-.182.157-.377.235-.586.235-.052 0-.104-.013-.156-.04-.026-.052-.13-.104-.312-.156-.183-.052-.456-.09-.82-.117-.365-.052-.873-.078-1.524-.078-.73 0-1.55.078-2.461.234-.912.157-1.849.482-2.813.977 1.12 3.099 1.68 6.289 1.68 9.57 0 .756-.026 1.537-.078 2.344-.026.781-.104 1.55-.234 2.305.65-.13 1.302-.222 1.953-.274.65-.078 1.302-.117 1.953-.117.495 0 1.041.013 1.64.04.6.025 1.16.077 1.68.155.547.078.99.209 1.328.391.365.156.547.39.547.703 0 .208-.065.378-.195.508s-.3.221-.508.273c-.443 0-.924-.052-1.445-.156-.521-.104-1.081-.156-1.68-.156-.833 0-1.719.052-2.656.156-.912.104-1.784.26-2.617.469.156.599.286 1.21.39 1.836.13.625.235 1.224.313 1.797.573-.209 1.146-.443 1.719-.703.599-.287 1.197-.612 1.796-.977l.43-.273.469.156c.026.026.208.143.547.351.364.209.768.56 1.21 1.055.47.469.925 1.094 1.368 1.875.443.755.781 1.719 1.015 2.89zM52.07 49.609l-.156.391c-.026.052-.17.26-.43.625-.26.339-.677.716-1.25 1.133-.547.39-1.289.755-2.226 1.094-.912.338-2.031.507-3.36.507-.911 0-1.77-.078-2.578-.234.235.599.495 1.107.782 1.523.312.417.612.756.898 1.016.286.26.547.456.781.586.26.156.482.26.664.313 1.172-.652 2.331-1.16 3.477-1.524 1.146-.39 2.305-.677 3.476-.86 1.172-.208 2.37-.338 3.594-.39 1.25-.052 2.565-.078 3.946-.078 1.848-.99 3.632-1.719 5.351-2.188 1.745-.468 3.659-.703 5.742-.703h1.211c.39 0 .794.026 1.211.078.209-.338.443-.82.703-1.445.26-.625.39-1.393.39-2.305 0-.963-.13-1.823-.39-2.578-.234-.755-.52-1.393-.86-1.914-.338-.547-.676-.976-1.015-1.289-.312-.338-.56-.573-.742-.703-.937.495-1.849.925-2.734 1.29-.86.364-1.72.676-2.578.937-.86.234-1.732.416-2.618.547-.859.104-1.77.156-2.734.156H59.57c-.312 0-.65-.026-1.015-.078.599 1.093 1.002 2.148 1.21 3.164.209.99.313 1.862.313 2.617 0 .677-.026 1.198-.078 1.562-.052.365-.13.625-.234.782-.078.156-.183.247-.313.273h-.351c-.287 0-.495-.065-.625-.195-.105-.13-.157-.3-.157-.508v-.078c.026-.026.04-.065.04-.117v-.274c.025-.156.038-.377.038-.664 0-.677-.13-1.588-.39-2.734-.235-1.172-.794-2.383-1.68-3.633-.104.104-.221.156-.351.156-.886.365-1.72.651-2.5.86-.756.208-1.51.39-2.266.546.052.651.13 1.302.234 1.954.13.65.313 1.34.547 2.07l.078.312zM127.5 3.71l-.156.47c-.469 1.458-.847 2.877-1.133 4.258-.26 1.38-.391 2.76-.391 4.14 0 1.042.078 2.084.235 3.125.182 1.016.429 2.057.742 3.125v.547c-.807 2.76-1.211 5.456-1.211 8.086 0 1.354.104 2.67.312 3.945.209 1.276.534 2.54.977 3.79v.663c-.521 1.355-.911 2.722-1.172 4.102-.234 1.38-.351 2.76-.351 4.14 0 2.63.455 5.235 1.367 7.813l.156.43-.156.312c-.026.052-.17.287-.43.703-.26.391-.69.82-1.289 1.29-.599.468-1.406.898-2.422 1.288-1.016.365-2.279.547-3.789.547-1.25 0-2.318-.117-3.203-.351-.885-.26-1.628-.6-2.227-1.016h-.39c-.703 0-1.328-.065-1.875-.195-.547-.156-1.003-.313-1.367-.469-.365-.182-.651-.351-.86-.508-.182-.182-.286-.3-.312-.351l-.313-.235v-.39c-.13-2.657-.677-5.196-1.64-7.617-.964-2.422-2.37-4.818-4.219-7.188l-.156-.39c-.313-1.771-.756-3.438-1.329-5-.546-1.563-1.224-3.073-2.03-4.532.051 1.224.169 2.409.35 3.555.21 1.146.522 2.278.938 3.398l.156.352-.156.312c-.495 1.328-.86 2.67-1.094 4.024-.234 1.328-.351 2.682-.351 4.062 0 1.355.104 2.696.312 4.024.209 1.302.56 2.617 1.055 3.945l.156.43-.156.312c-.026.052-.17.287-.43.703-.26.391-.69.82-1.289 1.29-.599.468-1.419.898-2.46 1.288-1.016.365-2.292.547-3.829.547-1.536 0-2.812-.195-3.828-.586-.99-.416-1.784-.872-2.383-1.367-.572-.52-.976-.99-1.21-1.406-.235-.417-.352-.651-.352-.703l-.156-.39.156-.352c.599-1.433 1.041-2.904 1.328-4.414.287-1.51.43-3.073.43-4.688 0-1.094-.065-2.187-.196-3.281-.104-1.12-.3-2.266-.586-3.438v-.468c.313-1.302.56-2.578.743-3.828.208-1.276.312-2.514.312-3.711 0-1.407-.117-2.774-.351-4.102-.235-1.328-.547-2.656-.938-3.984l-.078-.313.156-.312c1.12-2.865 1.68-5.716 1.68-8.555 0-1.146-.091-2.266-.274-3.36-.156-1.12-.416-2.265-.78-3.437l-.157-.508.312-.39.47-.47c.286-.312.715-.637 1.288-.976.6-.364 1.341-.677 2.227-.937.885-.287 1.94-.43 3.164-.43 1.172 0 2.174.143 3.008.43.86.26 1.588.573 2.187.937h.625c1.094 0 1.966.13 2.617.39.651.235 1.003.379 1.055.43l.508.235.078.469c.547 5.364 2.409 9.87 5.586 13.515l.234.235v.234c.677 4.271 2.019 7.956 4.024 11.055v-.078c0-1.407-.104-2.774-.313-4.102-.208-1.328-.508-2.682-.898-4.062v-.625c1.12-2.865 1.68-5.769 1.68-8.711 0-2.24-.326-4.453-.977-6.64l-.156-.509.312-.39.469-.47c.286-.312.716-.637 1.289-.976.599-.364 1.341-.677 2.227-.937.885-.287 1.94-.43 3.164-.43 1.224 0 2.291.17 3.203.508.911.312 1.679.664 2.304 1.055.625.39 1.094.755 1.407 1.093.312.339.481.521.508.547l.312.43zm-28.867.392c-.182-.157-.43-.352-.742-.586-.313-.235-.704-.456-1.172-.664-.469-.209-1.016-.378-1.64-.508-.6-.156-1.277-.235-2.032-.235-.73 0-1.38.065-1.953.196-.573.104-1.081.247-1.524.43-.416.182-.768.364-1.054.546-.287.183-.508.352-.664.508.312 1.172.546 2.318.703 3.438.156 1.12.234 2.265.234 3.437 0 1.198-.104 2.409-.312 3.633-.183 1.224-.482 2.435-.899 3.633.6-.157 1.185-.274 1.758-.352.599-.078 1.159-.117 1.68-.117 1.432 0 2.513.091 3.242.273.729.183 1.237.378 1.523.586.339.26.495.534.469.82 0 .235-.091.43-.273.587-.157.13-.339.195-.547.195-.052 0-.13-.026-.235-.078-.078-.078-.247-.157-.507-.235-.26-.078-.626-.143-1.094-.195-.469-.078-1.107-.117-1.914-.117-.651 0-1.355.065-2.11.195-.755.13-1.55.352-2.382.664.364 1.25.638 2.5.82 3.75.208 1.25.312 2.54.312 3.867 0 1.094-.078 2.214-.234 3.36-.13 1.12-.326 2.24-.586 3.36.417-.053.833-.092 1.25-.118.417-.026.833-.04 1.25-.04.599 0 1.276.04 2.031.118.781.052 1.51.143 2.188.274.677.13 1.25.299 1.719.507.468.183.703.417.703.703 0 .209-.092.391-.274.547-.156.157-.338.235-.547.235-.599 0-1.302-.091-2.11-.274-.806-.182-1.666-.273-2.577-.273-.6 0-1.237.026-1.914.078-.651.026-1.276.104-1.875.234.26 1.094.43 2.162.508 3.203.104 1.042.156 2.058.156 3.047 0 1.615-.143 3.203-.43 4.766-.286 1.536-.703 3.047-1.25 4.531.104.183.274.417.508.703.26.287.612.573 1.055.86.468.26 1.041.495 1.718.703.678.182 1.498.273 2.461.273.964 0 1.797-.09 2.5-.273.703-.208 1.29-.43 1.758-.664.495-.26.873-.521 1.133-.781.286-.287.495-.508.625-.664-.912-2.787-1.367-5.482-1.367-8.086 0-1.459.117-2.891.351-4.297.26-1.433.651-2.852 1.172-4.258-.443-1.328-.768-2.656-.976-3.984-.209-1.329-.313-2.696-.313-4.102 0-2.708.404-5.482 1.211-8.32-.651-2.136-.977-4.323-.977-6.563 0-2.838.482-5.664 1.446-8.476zm2.226-.391l-.234.469c-.469 1.458-.833 2.864-1.094 4.218-.234 1.355-.351 2.722-.351 4.102 0 1.094.065 2.162.195 3.203.156 1.016.39 2.057.703 3.125v.156c.599-.26 1.159-.455 1.68-.586.547-.156 1.028-.26 1.445-.312.417-.078.742-.117.977-.117.26-.026.416-.04.468-.04.209 0 .391.092.547.274.157.156.235.339.235.547 0 .208-.078.39-.235.547-.156.156-.338.234-.547.234-.052 0-.234.026-.546.078-.287.026-.664.118-1.133.274-.469.13-1.003.325-1.602.586-.599.26-1.211.612-1.836 1.054-.13.573-.247 1.133-.351 1.68-.078.547-.157 1.08-.235 1.602 1.224 1.64 2.24 3.398 3.047 5.273.807 1.85 1.446 3.828 1.914 5.938.599-.391 1.263-.756 1.992-1.094.73-.365 1.459-.677 2.188-.938.755-.286 1.471-.507 2.148-.664.704-.182 1.315-.273 1.836-.273.209 0 .378.065.508.195.156.13.261.287.313.469 0 .234-.065.443-.196.625-.13.156-.312.234-.547.234-1.041.157-2.252.534-3.632 1.133-1.381.6-2.67 1.315-3.868 2.149 1.719 2.343 3.021 4.713 3.907 7.109.911 2.37 1.445 4.857 1.601 7.46.209.157.547.326 1.016.509.469.182 1.068.273 1.797.273 1.51 0 2.773-.273 3.789-.82 1.015-.547 1.823-1.159 2.422-1.836.625-.703 1.067-1.341 1.328-1.914.26-.6.403-.938.43-1.016-4.011-4.349-6.303-9.414-6.876-15.195-1.848-1.98-3.359-4.167-4.531-6.563-1.146-2.422-1.979-5.169-2.5-8.242-1.614-1.927-2.916-4.036-3.906-6.328-.964-2.318-1.602-4.818-1.914-7.5-.104 0-.182-.013-.234-.039-.053-.026-.118-.04-.196-.04h.078zm22.422 32.46c-.104.365-.377.548-.82.548-.599 0-1.289-.091-2.07-.274-.756-.182-1.55-.273-2.383-.273h-1.289c.521 1.953 1.263 3.802 2.226 5.547.964 1.745 2.188 3.36 3.672 4.843l.352.235v.43c0 .052-.039.312-.117.78-.053.47-.261 1.056-.625 1.759-.339.677-.899 1.406-1.68 2.187-.755.781-1.823 1.497-3.203 2.149l-.625.312c.286.052.599.091.937.117.365.026.742.04 1.133.04.964 0 1.784-.092 2.461-.274.703-.208 1.289-.43 1.758-.664.469-.26.833-.521 1.094-.781.286-.287.494-.508.625-.664-.443-1.38-.769-2.748-.977-4.102-.208-1.354-.312-2.708-.312-4.063 0-2.916.481-5.742 1.445-8.476-.443-1.302-.768-2.604-.977-3.906-.208-1.328-.312-2.696-.312-4.102 0-2.682.403-5.482 1.211-8.398-.651-2.136-.977-4.323-.977-6.563 0-2.838.482-5.664 1.445-8.476-.182-.157-.429-.352-.742-.586-.312-.235-.69-.456-1.133-.664-.442-.209-.976-.378-1.601-.508-.599-.156-1.276-.235-2.031-.235-.756 0-1.42.065-1.993.196-.572.104-1.08.247-1.523.43-.443.182-.807.364-1.094.546-.286.183-.508.352-.664.508.625 2.24.938 4.48.938 6.719 0 2.604-.404 5.078-1.211 7.422.599-.157 1.185-.274 1.758-.352.599-.078 1.158-.117 1.679-.117 1.485 0 2.591.091 3.321.273.729.183 1.237.391 1.523.625.286.209.417.404.391.586v.196c0 .234-.092.43-.274.586-.156.13-.338.195-.547.195-.052 0-.117-.026-.195-.078-.078-.078-.247-.157-.508-.235-.234-.078-.586-.143-1.055-.195-.468-.078-1.106-.117-1.914-.117-.651 0-1.367.065-2.148.195-.755.13-1.536.352-2.344.664.339 1.25.599 2.5.782 3.75.182 1.224.273 2.461.273 3.711 0 .469-.013.938-.039 1.406-.026.443-.065.912-.117 1.407l.859.937.313.547c.078.781.195 1.589.351 2.422.677 0 1.419.039 2.227.117.807.052 1.562.143 2.265.274.703.13 1.289.299 1.758.507.469.209.703.47.703.782v.156z"/>
</svg>
