<svg xmlns="http://www.w3.org/2000/svg" width="48" height="48" fill="none" viewBox="0 0 48 48">
    <circle cx="24" cy="24" r="24" fill="#fff"/>
    <path fill="#333" d="M19 16v-1c0-.265.105-.52.293-.707.187-.188.442-.293.707-.293h8c.265 0 .52.105.707.293.188.187.293.442.293.707v1h3c0 2.5-2.5 3.5-3 3.5V22h3c0 2.5-2.5 3.5-3 3.5V28h3c0 2.5-2.5 3.5-3 3.5V33c0 .265-.105.52-.293.707-.187.188-.442.293-.707.293h-8c-.265 0-.52-.105-.707-.293C19.105 33.52 19 33.265 19 33v-1.5c-.5 0-3-1-3-3.5h3v-2.5c-.5 0-3-1-3-3.5h3v-2.5c-.5 0-3-1-3-3.5h3zm5 16c.53 0 1.04-.21 1.414-.586C25.79 31.04 26 30.53 26 30c0-.53-.21-1.04-.586-1.414C25.04 28.21 24.53 28 24 28c-.53 0-1.04.21-1.414.586C22.21 28.96 22 29.47 22 30c0 .53.21 1.04.586 1.414.375.375.884.586 1.414.586zm0-6c.53 0 1.04-.21 1.414-.586C25.79 25.04 26 24.53 26 24c0-.53-.21-1.04-.586-1.414C25.04 22.21 24.53 22 24 22c-.53 0-1.04.21-1.414.586C22.21 22.96 22 23.47 22 24c0 .53.21 1.04.586 1.414.375.375.884.586 1.414.586zm0-6c.53 0 1.04-.21 1.414-.586C25.79 19.04 26 18.53 26 18c0-.53-.21-1.04-.586-1.414C25.04 16.21 24.53 16 24 16c-.53 0-1.04.21-1.414.586C22.21 16.96 22 17.47 22 18c0 .53.21 1.04.586 1.414.375.375.884.586 1.414.586z"/>
</svg>
