<svg xmlns="http://www.w3.org/2000/svg" width="48" height="48" fill="none" viewBox="0 0 48 48">
    <circle cx="24" cy="24" r="24" fill="#fff"/>
    <path fill="#000" d="M29 32H19v1c0 .265-.105.52-.293.707-.187.188-.442.293-.707.293h-1c-.265 0-.52-.105-.707-.293C16.105 33.52 16 33.265 16 33v-1h-1v-8h-1v-4h1v-3c0-.53.21-1.04.586-1.414C15.96 15.21 16.47 15 17 15h14c.53 0 1.04.21 1.414.586.375.375.586.884.586 1.414v3h1v4h-1v8h-1v1c0 .265-.105.52-.293.707-.187.188-.442.293-.707.293h-1c-.265 0-.52-.105-.707-.293C29.105 33.52 29 33.265 29 33v-1zM17 17v9h14v-9H17zm0 11v2h4v-2h-4zm10 0v2h4v-2h-4z"/>
</svg>
